<mxfile host="app.diagrams.net" modified="2024-03-09T09:37:00.738Z" agent="Mozilla/5.0 (Macintosh; Intel Mac OS X 10_15_7) AppleWebKit/537.36 (KHTML, like Gecko) Chrome/120.0.0.0 Whale/3.24.223.18 Safari/537.36" version="24.0.0" etag="fMpRuErWPXoR2ObzGV9q" type="github">
  <diagram name="페이지-1" id="M-cepAOQDT6ib_2G-hRC">
    <mxGraphModel>
      <root>
        <mxCell id="0" />
        <mxCell id="1" parent="0" />
      </root>
    </mxGraphModel>
  </diagram>
</mxfile>
